<svg width="64" height="64" viewBox="0 0 64 64" fill="none" xmlns="http://www.w3.org/2000/svg">
<rect x="2" y="2" width="60" height="60" rx="18" stroke="currentColor" stroke-width="4"/>
<path fill-rule="evenodd" clip-rule="evenodd" d="M31.2356 43.2278H33.3729C33.3729 43.2278 34.2278 43.2278 34.6553 42.8004C35.0828 42.3729 35.0828 41.9455 35.0828 41.9455C35.0828 41.9455 35.0828 38.9533 36.3651 38.5258C37.6475 37.6709 39.7848 41.0905 41.4946 42.3729C42.777 43.2278 44.0594 43.2278 44.0594 43.2278H49.1889C49.1889 43.2278 51.7536 43.2278 50.4713 41.0905C50.4713 41.0905 49.6163 39.3807 46.6241 36.3885C43.6319 33.3963 44.0594 33.8238 47.9065 28.6943C50.4713 25.2746 51.3262 23.5648 51.3262 22.7098C50.8987 21.8549 49.1889 21.8549 49.1889 21.8549H43.2045C43.2045 21.8549 42.777 21.8549 42.3495 21.8549C42.3495 22.2824 41.9221 22.7098 41.9221 22.7098C41.9221 22.7098 41.0672 25.2746 39.7848 27.4119C37.22 31.6865 35.9377 32.1139 35.5102 31.6865C34.6553 31.259 35.0828 29.1217 35.0828 27.8393C35.0828 23.5648 35.9377 21.8549 33.8004 21.4275C32.9455 21 32.518 21 30.8082 21C28.6709 21 26.961 21 26.1061 21.4275C25.2512 21.8549 24.8238 22.7098 25.2512 22.7098C25.6787 22.7098 26.5336 23.1373 26.961 23.5648C27.3885 24.4197 27.3885 26.1295 27.3885 26.1295C27.3885 26.1295 27.816 31.259 26.5336 31.6865C25.6787 32.1139 24.8238 31.259 22.259 27.4119C20.9766 25.2746 20.1217 23.1373 20.1217 23.1373C20.1217 23.1373 20.1217 22.7098 19.6943 22.2824C19.2668 22.2824 18.8393 21.8549 18.8393 21.8549H13.2824C13.2824 21.8549 12.4275 21.8549 12 22.2824C12 22.7098 12 23.5648 12 23.5648C12 23.5648 16.2746 33.8238 21.4041 38.9533C26.1061 43.6553 31.2356 43.2278 31.2356 43.2278Z" fill="currentColor"/>
</svg>
