<svg width="64" height="64" viewBox="0 0 64 64" fill="none" xmlns="http://www.w3.org/2000/svg">
<rect x="2" y="2" width="60" height="60" rx="18" stroke="currentColor" stroke-width="4"/>
<path d="M41.3903 34.5924C41.028 34.23 38.8538 33.1429 38.4914 33.1429C38.129 32.7806 37.7667 32.7806 37.7667 33.1429C37.4043 33.5053 36.3172 34.5924 36.3172 34.9548C35.9548 35.3171 35.9548 35.3171 35.2301 34.9548C34.8677 34.5924 33.4183 34.23 31.9688 32.7806C30.8817 31.6935 29.7946 30.244 29.7946 29.5193C29.4323 29.1569 29.7946 28.7946 30.157 28.7946C30.157 28.7946 30.5193 28.4322 30.5193 28.0698C30.8817 27.7075 30.8817 27.7075 30.8817 27.3451C30.8817 26.9827 30.8817 26.9827 30.8817 26.6204C30.8817 26.258 30.157 24.4462 29.7946 23.3591C29.4323 22.6343 29.0699 22.6343 29.0699 22.6343C28.7075 22.6343 28.7075 22.6343 28.3452 22.6343C27.9828 22.6343 27.2581 22.6343 26.8957 23.3591C26.5333 23.7214 25.4462 24.8085 25.4462 26.9827C25.4462 28.7946 26.8957 30.9687 26.8957 30.9687C27.2581 31.3311 29.7946 36.0419 33.7806 37.8537C38.129 39.6655 38.129 39.3032 38.8538 38.9408C39.5785 38.9408 41.3903 37.8537 41.7527 37.129C42.1151 36.0419 42.115 35.3171 42.115 35.3171C42.115 34.9548 41.7527 34.5924 41.3903 34.5924Z" fill="currentColor"/>
<path d="M32.3312 14.3C23.272 14.3 16.0247 21.5473 16.0247 30.9688C16.0247 34.2301 16.7495 37.129 18.5613 39.6656L15.3 48L24.3591 45.1011C26.8957 46.5505 29.4323 47.2753 32.3312 47.2753C41.3903 47.2753 49 40.028 49 30.6064C49 21.5473 41.3903 14.3 32.3312 14.3Z" stroke="currentColor" stroke-width="3.62366" stroke-miterlimit="10"/>
</svg>
