<svg width="0" height="0" style="position:absolute"><symbol viewBox="0 0 64 64" fill="none" id="facebook-ico" xmlns="http://www.w3.org/2000/svg"><rect x="2" y="2" width="60" height="60" rx="18" stroke="currentColor" stroke-width="4"/><path d="M34.24 51.333v-16.7h5.567l.795-6.363H34.24v-3.976c0-1.989.398-3.182 3.181-3.182H41v-5.964c-.795-.398-2.783-.398-5.17-.398-4.771 0-8.35 3.181-8.35 8.748v4.772h-5.567v6.362h5.567v16.701h6.76z" fill="currentColor"/></symbol><symbol viewBox="0 0 64 64" fill="none" id="instagram-ico" xmlns="http://www.w3.org/2000/svg"><rect x="2" y="2" width="60" height="60" rx="18" stroke="currentColor" stroke-width="4"/><path d="M48.231 18.981a3.769 3.769 0 100-7.538 3.769 3.769 0 000 7.538z" fill="currentColor"/><path d="M31.9 45.363c7.4 0 13.4-6 13.4-13.4 0-7.401-6-13.4-13.4-13.4s-13.4 5.999-13.4 13.4c0 7.4 6 13.4 13.4 13.4z" stroke="currentColor" stroke-width="4.188" stroke-miterlimit="10"/></symbol><symbol viewBox="0 0 64 64" fill="none" id="vkontacte-ico" xmlns="http://www.w3.org/2000/svg"><rect x="2" y="2" width="60" height="60" rx="18" stroke="currentColor" stroke-width="4"/><path fill-rule="evenodd" clip-rule="evenodd" d="M31.236 43.228h2.137s.855 0 1.282-.428c.428-.427.428-.854.428-.854s0-2.993 1.282-3.42c1.282-.855 3.42 2.564 5.13 3.847 1.282.855 2.564.855 2.564.855h5.13s2.565 0 1.282-2.138c0 0-.855-1.71-3.847-4.702s-2.565-2.564 1.282-7.694c2.565-3.42 3.42-5.13 3.42-5.984-.427-.855-2.137-.855-2.137-.855h-5.984-.855c0 .427-.428.855-.428.855s-.855 2.565-2.137 4.702c-2.565 4.274-3.847 4.702-4.275 4.274-.855-.427-.427-2.564-.427-3.847 0-4.274.855-5.984-1.283-6.412C32.946 21 32.518 21 30.808 21c-2.137 0-3.847 0-4.702.427-.855.428-1.282 1.283-.855 1.283.428 0 1.283.427 1.71.855.428.855.428 2.564.428 2.564s.427 5.13-.855 5.557c-.855.428-1.71-.427-4.275-4.274-1.282-2.137-2.137-4.275-2.137-4.275s0-.427-.428-.855c-.427 0-.855-.427-.855-.427h-5.557s-.854 0-1.282.427v1.283s4.275 10.259 9.404 15.388c4.702 4.702 9.832 4.275 9.832 4.275z" fill="currentColor"/></symbol><symbol viewBox="0 0 64 64" fill="none" id="whatsapp-ico" xmlns="http://www.w3.org/2000/svg"><rect x="2" y="2" width="60" height="60" rx="18" stroke="currentColor" stroke-width="4"/><path d="M41.39 34.592c-.362-.362-2.536-1.45-2.899-1.45-.362-.361-.724-.361-.724 0-.363.363-1.45 1.45-1.45 1.813-.362.362-.362.362-1.087 0-.362-.363-1.812-.725-3.261-2.174-1.087-1.087-2.174-2.537-2.174-3.262-.363-.362 0-.724.362-.724 0 0 .362-.363.362-.725.363-.363.363-.363.363-.725v-.725c0-.362-.725-2.174-1.087-3.26-.363-.726-.725-.726-.725-.726h-.725c-.362 0-1.087 0-1.45.725-.362.362-1.449 1.45-1.449 3.624 0 1.812 1.45 3.986 1.45 3.986.362.362 2.899 5.073 6.885 6.885 4.348 1.812 4.348 1.45 5.073 1.087.724 0 2.536-1.087 2.899-1.812.362-1.087.362-1.812.362-1.812 0-.362-.362-.725-.725-.725z" fill="currentColor"/><path d="M32.331 14.3c-9.059 0-16.306 7.247-16.306 16.669 0 3.261.725 6.16 2.536 8.697L15.3 48l9.06-2.899c2.536 1.45 5.072 2.174 7.971 2.174 9.06 0 16.669-7.247 16.669-16.669C49 21.547 41.39 14.3 32.331 14.3z" stroke="currentColor" stroke-width="3.624" stroke-miterlimit="10"/></symbol></svg>